# File created by Blade
# Date/Time:  Thu Sep 25 18:58:07 2014
# Frame Rate: 120.000 fps
#------------------------------------------------------
:FULLY-SPECIFIED
:DEGREES
1269
root 1.261939 33.056678 2.437511 5.286972 -0.202871 -0.509708
Spine -12.992972 5.927788 -1.054149
Head 12.288007 -8.586455 6.775739
LeftShoulder -17.057955 -12.805326 49.979047
LeftArm 76.759646 -60.176060 -32.774476
LeftForeArm 2.452618 0.000000 27.584086
LeftHand -27.609531 -0.000000 7.920148
LeftHandThumb1 -26.253704 0.000000 33.147579
RightShoulder -74.850461 57.840195 -128.903474
RightArm 31.957231 11.381814 41.952508
RightForeArm -21.532857 -0.000000 37.316027
RightHand -9.391700 -0.000000 25.702288
RightHandThumb1 -24.326973 -0.000000 -32.862282
LeftUpLeg 3.225111 10.326444 5.316284
LeftLeg -3.981178 -0.000000 0.000000
LeftFoot -4.558594 -2.575229 -18.615326
LeftToeBase 8.573701 -0.000000 -0.000000
RightUpLeg 2.447587 -9.713592 -6.211594
RightLeg -1.402470 -0.000000 0.000000
RightFoot -2.734527 -0.981298 3.902672
RightToeBase -3.274092 -0.000000 0.000000
1270
root 1.261805 33.056928 2.435295 5.279164 -0.184169 -0.507453
Spine -12.977484 5.937359 -1.055380
Head 12.300906 -8.623593 6.787487
LeftShoulder -17.067242 -12.805339 49.965061
LeftArm 76.819652 -60.150446 -32.796402
LeftForeArm 2.485107 -0.000000 27.516292
LeftHand -27.303886 0.000000 7.922463
LeftHandThumb1 -26.253704 0.000000 33.147579
RightShoulder -74.836065 57.856359 -128.876616
RightArm 31.942390 11.354063 41.921783
RightForeArm -21.519493 -0.000000 37.360566
RightHand -9.389262 0.000000 25.655416
RightHandThumb1 -24.326973 -0.000000 -32.862282
LeftUpLeg 3.217286 10.301398 5.307387
LeftLeg -3.958493 -0.000000 0.000000
LeftFoot -4.591932 -2.533005 -18.668018
LeftToeBase 8.609999 -0.000000 -0.000000
RightUpLeg 2.448079 -9.724628 -6.211783
RightLeg -1.386011 -0.000000 0.000000
RightFoot -2.747444 -0.993803 3.897874
RightToeBase -3.306909 -0.000000 0.000000
1271
root 1.262881 33.057193 2.433727 5.265718 -0.163181 -0.503705
Spine -12.965176 5.948849 -1.048865
Head 12.343655 -8.647271 6.788151
LeftShoulder -17.080436 -12.828968 49.988684
LeftArm 76.876746 -60.076717 -32.889696
LeftForeArm 2.404393 -0.000000 27.568239
LeftHand -27.585742 -0.000000 7.983468
LeftHandThumb1 -26.253704 0.000000 33.147579
RightShoulder -74.790416 57.872617 -128.818993
RightArm 31.960125 11.348088 41.929051
RightForeArm -21.541769 -0.000000 37.385153
RightHand -9.368935 0.000000 25.647356
RightHandThumb1 -24.326973 -0.000000 -32.862282
LeftUpLeg 3.215042 10.302449 5.312031
LeftLeg -3.945487 -0.000000 0.000000
LeftFoot -4.564220 -2.591452 -18.635071
LeftToeBase 8.556547 -0.000000 -0.000000
RightUpLeg 2.462615 -9.752201 -6.219150
RightLeg -1.386199 -0.000000 0.000000
RightFoot -2.735984 -0.993628 3.884734
RightToeBase -3.329420 -0.000000 0.000000
1272
root 1.262672 33.057233 2.430537 5.258825 -0.140334 -0.499283
Spine -12.958344 5.959714 -1.044714
Head 12.379114 -8.670344 6.782490
LeftShoulder -17.058371 -12.823156 49.968951
LeftArm 76.936553 -60.069239 -32.945018
LeftForeArm 2.374918 -0.000000 27.493966
LeftHand -27.641599 -0.000000 7.831719
LeftHandThumb1 -26.253704 0.000000 33.147579
RightShoulder -74.815966 57.895138 -128.847882
RightArm 31.961462 11.315969 41.948647
RightForeArm -21.519096 -0.000000 37.368524
RightHand -9.338996 -0.000000 25.706739
RightHandThumb1 -24.326973 -0.000000 -32.862282
LeftUpLeg 3.199158 10.254352 5.299247
LeftLeg -3.905776 -0.000000 0.000000
LeftFoot -4.574016 -2.547756 -18.480669
LeftToeBase 8.324930 -0.000000 -0.000000
RightUpLeg 2.458510 -9.757465 -6.220285
RightLeg -1.363942 -0.000000 0.000000
RightFoot -2.758790 -1.010888 3.874007
RightToeBase -3.265541 -0.000000 0.000000
1273
root 1.263004 33.057378 2.428293 5.252128 -0.126538 -0.492158
Spine -12.951529 5.987797 -1.046049
Head 12.414503 -8.713810 6.755830
LeftShoulder -17.026964 -12.756363 49.901560
LeftArm 76.949405 -60.118056 -32.893968
LeftForeArm 2.376910 -0.000000 27.528770
LeftHand -27.471134 -0.000000 8.156282
LeftHandThumb1 -26.253704 0.000000 33.147579
RightShoulder -75.026745 57.914141 -129.140345
RightArm 31.821423 11.221818 42.004356
RightForeArm -21.430630 -0.000000 37.354559
RightHand -9.328689 -0.000000 25.715519
RightHandThumb1 -24.326973 -0.000000 -32.862282
LeftUpLeg 3.192635 10.246519 5.294578
LeftLeg -3.897014 -0.000000 0.000000
LeftFoot -4.615265 -2.537940 -18.655310
LeftToeBase 8.580175 -0.000000 -0.000000
RightUpLeg 2.460507 -9.768403 -6.228093
RightLeg -1.355421 -0.000000 0.000000
RightFoot -2.765111 -1.005736 3.890825
RightToeBase -3.307292 -0.000000 0.000000
